<svg width="24" height="24" viewBox="0 0 24 24" fill="none" xmlns="http://www.w3.org/2000/svg">
<path d="M3.9074 9.65134C7.53762 3.44955 16.4624 3.44955 20.0926 9.65134C21.3025 11.7182 21.3025 14.2818 20.0926 16.3487C16.4624 22.5504 7.53762 22.5504 3.9074 16.3487C2.69753 14.2818 2.69753 11.7182 3.9074 9.65134Z" stroke="#BFBFBF" stroke-width="1.5" stroke-linecap="round" stroke-linejoin="round"/>
<path fill-rule="evenodd" clip-rule="evenodd" d="M15.5567 13.0605C15.5567 15.0559 13.9637 16.6731 11.9995 16.6731C10.0352 16.6731 8.44336 15.0559 8.44336 13.0605C8.44336 11.0639 10.0352 9.44678 11.9995 9.44678C13.9637 9.44678 15.5567 11.0639 15.5567 13.0605Z" stroke="#84AB99" stroke-width="2" stroke-linecap="round" stroke-linejoin="round"/>
<path d="M12 2V3.25V4.5M18 3.4998L17 5.5M6 3.49968L7 5.51343" stroke="#84AB99" stroke-width="1.5" stroke-linecap="round"/>
</svg>
