<svg width="24" height="25" viewBox="0 0 24 25" fill="none" xmlns="http://www.w3.org/2000/svg">
<path d="M19.9977 13.1199L20 13.1204L19.9767 13.2837C19.8513 13.2545 19.3703 13.1496 18.8805 13.1438C18.4315 13.1379 17.828 13.2254 17.5743 13.2604L17.5743 13.2604C17.5598 13.307 17.5452 13.3537 17.5277 13.4003C17.895 13.3712 18.3703 13.3216 18.6706 13.3304C19.2828 13.3449 19.8659 13.5228 19.93 13.5403L19.9067 13.7269C19.8717 13.7181 19.242 13.5315 18.6472 13.5169C18.3353 13.5082 17.8047 13.5578 17.4577 13.5869C16.9504 14.7881 15.7493 15.6423 13.8192 15.9193C14.5044 16.4411 14.9854 17.4907 14.9854 18.2983V19.5811L14.2391 19.8376V18.8814C14.2391 18.6744 14.0729 18.5082 13.8659 18.5082C13.6589 18.5082 13.4927 18.6744 13.4927 18.8814V20.0242L12.7464 20.1175V18.4382C12.7464 18.2312 12.5802 18.065 12.3732 18.065C12.1662 18.065 12 18.2312 12 18.4382V20.1642L11.2536 20.1175V18.8814C11.2536 18.6744 11.0875 18.5082 10.8805 18.5082C10.6735 18.5082 10.5073 18.6744 10.5073 18.8814V20.0242L9.76093 19.8376V18.2983C9.76093 18.2254 9.77551 18.1408 9.78426 18.065H8.6414C8.02915 18.065 7.48397 17.8085 7.21866 17.3187C6.9242 16.7735 6.63848 16.1496 5.91254 15.6394C5.78426 15.5519 5.85131 15.4266 6.09913 15.4528C6.34694 15.482 6.81341 15.5228 7.17201 15.9892L7.17969 15.9994C7.53345 16.4663 7.93191 16.9922 8.59475 16.9922C9.24781 16.9922 9.94752 17.0213 10.3207 16.5723C10.3265 16.5636 10.3382 16.5578 10.344 16.549C10.5102 16.3012 10.7114 16.0855 10.9271 15.9193C9.02332 15.6452 7.8309 14.8085 7.31195 13.6336C7.08746 13.6161 6.60933 13.5898 6.0758 13.5869C5.85423 13.5869 5.64723 13.5927 5.49271 13.6102C4.84548 13.686 4.33236 13.9718 4.18659 14.0534L4.13994 13.8668C4.32945 13.7618 4.81341 13.5024 5.46939 13.4236C6.00583 13.3595 6.8484 13.4149 7.24198 13.447C7.21574 13.377 7.19242 13.307 7.17201 13.2371C7.05248 13.2283 5.85714 13.1204 5.46939 13.1204C5.10496 13.1204 4.4344 13.2108 4.02332 13.307L4 13.1204C4.42857 13.0184 5.0758 12.9338 5.46939 12.9338C5.86297 12.9338 6.85714 13.0067 7.10204 13.0271C7.03499 12.7356 7.00875 12.4149 7.00875 12.0942C7.00875 11.2225 7.34985 10.3799 7.94169 9.66854C8.74978 8.7504 9.30427 8.43805 10.3207 8.03589C10.9504 7.81432 11.6501 7.70936 12.3732 7.70936C13.1137 7.70936 13.8076 7.82598 14.449 8.05921C14.5948 7.87554 15.3819 6.98633 16.7813 6.98633C17.3528 7.55776 17.0612 9.0563 16.8513 9.71519C17.4169 10.4149 17.7376 11.2429 17.7376 12.0942C17.7376 12.4353 17.6735 12.7648 17.5977 13.0738C17.8863 13.0271 18.4286 12.9513 18.8805 12.9572C19.3823 12.963 19.8466 13.0813 19.9977 13.1199Z" fill="#CC996C"/>
<path d="M16.7813 6.98633C17.3528 7.55776 17.0612 9.0563 16.8513 9.71519C16.1051 8.89727 15.5907 8.49863 14.449 8.05921C14.5947 7.87554 15.3819 6.98633 16.7813 6.98633Z" fill="#8C8C8C"/>
<path d="M10.3203 16.5723C10.3261 16.5635 10.3378 16.5577 10.3436 16.549C9.51056 17.5389 9.97084 17.4587 9.78382 18.065H8.64096C8.02872 18.065 7.48353 17.8084 7.21822 17.3186C6.92376 16.7735 6.63804 16.1496 5.9121 15.6393C5.78382 15.5519 5.85087 15.4265 6.09869 15.4528C6.3465 15.4819 6.81297 15.5227 7.17157 15.9892C7.52726 16.4586 7.92667 16.9921 8.59431 16.9921C9.24737 16.9921 9.94708 17.0213 10.3203 16.5723Z" fill="#CC996C"/>
<path d="M8.06054 6.98633C9.40164 6.98633 10.1742 7.79974 10.3696 8.03589C9.35314 8.43805 8.79865 8.7504 7.99056 9.66854C7.78065 8.98924 7.50077 7.54609 8.06054 6.98633Z" fill="#8C8C8C"/>
<circle cx="12" cy="12.9863" r="10.25" stroke="#8C8C8C" stroke-width="1.5"/>
</svg>
