<svg width="24" height="25" viewBox="0 0 24 25" fill="none" xmlns="http://www.w3.org/2000/svg">
<path d="M3.47178 14.5408L4.19222 14.3323L3.47178 14.5408ZM3.47178 7.89286L2.75134 7.68438H2.75134L3.47178 7.89286ZM20.5282 7.89287L21.2487 7.68439V7.68439L20.5282 7.89287ZM20.5282 14.5408L19.8078 14.3323V14.3323L20.5282 14.5408ZM16.8148 17.9939L16.6747 17.2571L16.8148 17.9939ZM7.18522 17.9939L7.32531 17.2571L7.18522 17.9939ZM7.18522 4.43977L7.04513 3.70297L7.18522 4.43977ZM16.8148 4.43977L16.9549 3.70297L16.8148 4.43977ZM3.52005 14.7076L2.79961 14.9161H2.79961L3.52005 14.7076ZM20.48 14.7076L21.2004 14.916L21.2004 14.916L20.48 14.7076ZM20.48 7.72606L19.7595 7.93455L19.7595 7.93455L20.48 7.72606ZM3.52005 7.72606L4.24049 7.93454L3.52005 7.72606ZM12.75 18.9093C12.75 18.4951 12.4142 18.1593 12 18.1593C11.5858 18.1593 11.25 18.4951 11.25 18.9093H12.75ZM11.25 21.9863C11.25 22.4005 11.5858 22.7363 12 22.7363C12.4142 22.7363 12.75 22.4005 12.75 21.9863H11.25ZM9.36386 21.2363C8.94964 21.2363 8.61386 21.5721 8.61386 21.9863C8.61386 22.4005 8.94964 22.7363 9.36386 22.7363V21.2363ZM14.6361 22.7363C15.0504 22.7363 15.3861 22.4005 15.3861 21.9863C15.3861 21.5721 15.0504 21.2363 14.6361 21.2363V22.7363ZM19.7595 7.93455L19.8078 8.10135L21.2487 7.68439L21.2004 7.51758L19.7595 7.93455ZM19.8078 14.3323L19.7595 14.4991L21.2004 14.916L21.2487 14.7492L19.8078 14.3323ZM4.24049 14.4991L4.19222 14.3323L2.75134 14.7493L2.79961 14.9161L4.24049 14.4991ZM4.19222 8.10135L4.24049 7.93454L2.79961 7.51758L2.75134 7.68438L4.19222 8.10135ZM4.19222 14.3323C3.60259 12.2947 3.60259 10.1389 4.19222 8.10135L2.75134 7.68438C2.08289 9.99431 2.08289 12.4393 2.75134 14.7493L4.19222 14.3323ZM19.8078 8.10135C20.3974 10.1389 20.3974 12.2947 19.8078 14.3323L21.2487 14.7492C21.9171 12.4393 21.9171 9.99431 21.2487 7.68439L19.8078 8.10135ZM16.6747 17.2571C13.5875 17.844 10.4125 17.844 7.32531 17.2571L7.04513 18.7307C10.3175 19.3528 13.6825 19.3528 16.9549 18.7307L16.6747 17.2571ZM7.32531 5.17657C10.4125 4.58958 13.5875 4.58958 16.6747 5.17657L16.9549 3.70297C13.6825 3.08078 10.3175 3.08078 7.04513 3.70297L7.32531 5.17657ZM7.32531 17.2571C5.83267 16.9733 4.64581 15.8997 4.24049 14.4991L2.79961 14.9161C3.36686 16.8763 5.015 18.3447 7.04513 18.7307L7.32531 17.2571ZM16.9549 18.7307C18.985 18.3447 20.6331 16.8763 21.2004 14.916L19.7595 14.4991C19.3542 15.8997 18.1673 16.9733 16.6747 17.2571L16.9549 18.7307ZM16.6747 5.17657C18.1673 5.46038 19.3542 6.53393 19.7595 7.93455L21.2004 7.51758C20.6331 5.55736 18.985 4.08897 16.9549 3.70297L16.6747 5.17657ZM7.04513 3.70297C5.015 4.08897 3.36686 5.55736 2.79961 7.51758L4.24049 7.93454C4.64581 6.53393 5.83267 5.46038 7.32531 5.17657L7.04513 3.70297ZM11.25 18.9093V21.9863H12.75V18.9093H11.25ZM9.36386 22.7363H14.6361V21.2363H9.36386V22.7363Z" fill="#8C8C8C"/>
<path d="M8 12.2363L10.0588 10.615C10.4346 10.319 10.6225 10.1711 10.8303 10.1975C11.0381 10.2239 11.1831 10.4141 11.473 10.7946L12.527 12.1781C12.8169 12.5586 12.9619 12.7488 13.1697 12.7752C13.3775 12.8016 13.5654 12.6536 13.9412 12.3577L16 10.7363" stroke="#CC996C" stroke-width="1.5" stroke-linecap="round"/>
</svg>
